G04 #@! TF.GenerationSoftware,KiCad,Pcbnew,10.0.4*
G04 #@! TF.CreationDate,2026-06-23T21:21:19+02:00*
G04 #@! TF.ProjectId,sniffer,736e6966-6665-4722-9e6b-696361645f70,0.1.1*
G04 #@! TF.SameCoordinates,Original*
G04 #@! TF.FileFunction,Legend,Top*
G04 #@! TF.FilePolarity,Positive*
%FSLAX46Y46*%
G04 Gerber Fmt 4.6, Leading zero omitted, Abs format (unit mm)*
G04 Created by KiCad (PCBNEW 10.0.4) date 2026-06-23 21:21:19*
%MOMM*%
%LPD*%
G01*
G04 APERTURE LIST*
%ADD10C,0.150000*%
%ADD11C,0.120000*%
%ADD12C,0.000000*%
G04 APERTURE END LIST*
D10*
X160319047Y-129662294D02*
X160395237Y-129662294D01*
X160395237Y-129662294D02*
X160471428Y-129700389D01*
X160471428Y-129700389D02*
X160509523Y-129738484D01*
X160509523Y-129738484D02*
X160547618Y-129814675D01*
X160547618Y-129814675D02*
X160585713Y-129967056D01*
X160585713Y-129967056D02*
X160585713Y-130157532D01*
X160585713Y-130157532D02*
X160547618Y-130309913D01*
X160547618Y-130309913D02*
X160509523Y-130386103D01*
X160509523Y-130386103D02*
X160471428Y-130424199D01*
X160471428Y-130424199D02*
X160395237Y-130462294D01*
X160395237Y-130462294D02*
X160319047Y-130462294D01*
X160319047Y-130462294D02*
X160242856Y-130424199D01*
X160242856Y-130424199D02*
X160204761Y-130386103D01*
X160204761Y-130386103D02*
X160166666Y-130309913D01*
X160166666Y-130309913D02*
X160128570Y-130157532D01*
X160128570Y-130157532D02*
X160128570Y-129967056D01*
X160128570Y-129967056D02*
X160166666Y-129814675D01*
X160166666Y-129814675D02*
X160204761Y-129738484D01*
X160204761Y-129738484D02*
X160242856Y-129700389D01*
X160242856Y-129700389D02*
X160319047Y-129662294D01*
X160928571Y-130386103D02*
X160966666Y-130424199D01*
X160966666Y-130424199D02*
X160928571Y-130462294D01*
X160928571Y-130462294D02*
X160890475Y-130424199D01*
X160890475Y-130424199D02*
X160928571Y-130386103D01*
X160928571Y-130386103D02*
X160928571Y-130462294D01*
X161728570Y-130462294D02*
X161271427Y-130462294D01*
X161499999Y-130462294D02*
X161499999Y-129662294D01*
X161499999Y-129662294D02*
X161423808Y-129776579D01*
X161423808Y-129776579D02*
X161347618Y-129852770D01*
X161347618Y-129852770D02*
X161271427Y-129890865D01*
X162071428Y-130386103D02*
X162109523Y-130424199D01*
X162109523Y-130424199D02*
X162071428Y-130462294D01*
X162071428Y-130462294D02*
X162033332Y-130424199D01*
X162033332Y-130424199D02*
X162071428Y-130386103D01*
X162071428Y-130386103D02*
X162071428Y-130462294D01*
X162871427Y-130462294D02*
X162414284Y-130462294D01*
X162642856Y-130462294D02*
X162642856Y-129662294D01*
X162642856Y-129662294D02*
X162566665Y-129776579D01*
X162566665Y-129776579D02*
X162490475Y-129852770D01*
X162490475Y-129852770D02*
X162414284Y-129890865D01*
X155871428Y-129314699D02*
X156085714Y-129386127D01*
X156085714Y-129386127D02*
X156442856Y-129386127D01*
X156442856Y-129386127D02*
X156585714Y-129314699D01*
X156585714Y-129314699D02*
X156657142Y-129243270D01*
X156657142Y-129243270D02*
X156728571Y-129100413D01*
X156728571Y-129100413D02*
X156728571Y-128957556D01*
X156728571Y-128957556D02*
X156657142Y-128814699D01*
X156657142Y-128814699D02*
X156585714Y-128743270D01*
X156585714Y-128743270D02*
X156442856Y-128671841D01*
X156442856Y-128671841D02*
X156157142Y-128600413D01*
X156157142Y-128600413D02*
X156014285Y-128528984D01*
X156014285Y-128528984D02*
X155942856Y-128457556D01*
X155942856Y-128457556D02*
X155871428Y-128314699D01*
X155871428Y-128314699D02*
X155871428Y-128171841D01*
X155871428Y-128171841D02*
X155942856Y-128028984D01*
X155942856Y-128028984D02*
X156014285Y-127957556D01*
X156014285Y-127957556D02*
X156157142Y-127886127D01*
X156157142Y-127886127D02*
X156514285Y-127886127D01*
X156514285Y-127886127D02*
X156728571Y-127957556D01*
X157371427Y-128386127D02*
X157371427Y-129386127D01*
X157371427Y-128528984D02*
X157442856Y-128457556D01*
X157442856Y-128457556D02*
X157585713Y-128386127D01*
X157585713Y-128386127D02*
X157799999Y-128386127D01*
X157799999Y-128386127D02*
X157942856Y-128457556D01*
X157942856Y-128457556D02*
X158014285Y-128600413D01*
X158014285Y-128600413D02*
X158014285Y-129386127D01*
X158728570Y-129386127D02*
X158728570Y-128386127D01*
X158728570Y-127886127D02*
X158657142Y-127957556D01*
X158657142Y-127957556D02*
X158728570Y-128028984D01*
X158728570Y-128028984D02*
X158799999Y-127957556D01*
X158799999Y-127957556D02*
X158728570Y-127886127D01*
X158728570Y-127886127D02*
X158728570Y-128028984D01*
X159228571Y-128386127D02*
X159799999Y-128386127D01*
X159442856Y-129386127D02*
X159442856Y-128100413D01*
X159442856Y-128100413D02*
X159514285Y-127957556D01*
X159514285Y-127957556D02*
X159657142Y-127886127D01*
X159657142Y-127886127D02*
X159799999Y-127886127D01*
X160085714Y-128386127D02*
X160657142Y-128386127D01*
X160299999Y-129386127D02*
X160299999Y-128100413D01*
X160299999Y-128100413D02*
X160371428Y-127957556D01*
X160371428Y-127957556D02*
X160514285Y-127886127D01*
X160514285Y-127886127D02*
X160657142Y-127886127D01*
X161728571Y-129314699D02*
X161585714Y-129386127D01*
X161585714Y-129386127D02*
X161300000Y-129386127D01*
X161300000Y-129386127D02*
X161157142Y-129314699D01*
X161157142Y-129314699D02*
X161085714Y-129171841D01*
X161085714Y-129171841D02*
X161085714Y-128600413D01*
X161085714Y-128600413D02*
X161157142Y-128457556D01*
X161157142Y-128457556D02*
X161300000Y-128386127D01*
X161300000Y-128386127D02*
X161585714Y-128386127D01*
X161585714Y-128386127D02*
X161728571Y-128457556D01*
X161728571Y-128457556D02*
X161800000Y-128600413D01*
X161800000Y-128600413D02*
X161800000Y-128743270D01*
X161800000Y-128743270D02*
X161085714Y-128886127D01*
X162442856Y-129386127D02*
X162442856Y-128386127D01*
X162442856Y-128671841D02*
X162514285Y-128528984D01*
X162514285Y-128528984D02*
X162585714Y-128457556D01*
X162585714Y-128457556D02*
X162728571Y-128386127D01*
X162728571Y-128386127D02*
X162871428Y-128386127D01*
D11*
X145265000Y-86860000D02*
X145265000Y-97140000D01*
X145265000Y-97140000D02*
X151735000Y-97140000D01*
X147500000Y-86860000D02*
X145265000Y-86860000D01*
X151735000Y-86860000D02*
X149500000Y-86860000D01*
X151735000Y-97140000D02*
X151735000Y-86860000D01*
X149500000Y-86860000D02*
G75*
G02*
X147500000Y-86860000I-1000000J0D01*
G01*
X147227064Y-114065000D02*
X146772936Y-114065000D01*
X147227064Y-115535000D02*
X146772936Y-115535000D01*
X137711252Y-128590000D02*
X136288748Y-128590000D01*
X137711252Y-130410000D02*
X136288748Y-130410000D01*
X146440000Y-119340000D02*
X146535000Y-119340000D01*
X146440000Y-123460000D02*
X146440000Y-119340000D01*
X146535000Y-123460000D02*
X146440000Y-123460000D01*
X151465000Y-119340000D02*
X151560000Y-119340000D01*
X151560000Y-119340000D02*
X151560000Y-123460000D01*
X151560000Y-123460000D02*
X151465000Y-123460000D01*
X151470000Y-118800000D02*
X151800000Y-118560000D01*
X151800000Y-119040000D01*
X151470000Y-118800000D01*
G36*
X151800000Y-119040000D02*
G01*
X151470000Y-118800000D01*
X151800000Y-118560000D01*
X151800000Y-119040000D01*
G37*
X148272936Y-135765000D02*
X148727064Y-135765000D01*
X148272936Y-137235000D02*
X148727064Y-137235000D01*
X153540000Y-131690000D02*
X153540000Y-141110000D01*
X153540000Y-131690000D02*
X155050000Y-131690000D01*
X153540000Y-137800000D02*
X162160000Y-137800000D01*
X153540000Y-141110000D02*
X162160000Y-141110000D01*
X155800000Y-130400000D02*
X156400000Y-130400000D01*
X156100000Y-131000000D02*
X155800000Y-130400000D01*
X156400000Y-130400000D02*
X156100000Y-131000000D01*
X157150000Y-131690000D02*
X158550000Y-131690000D01*
X162160000Y-131690000D02*
X160650000Y-131690000D01*
X162160000Y-141110000D02*
X162160000Y-131690000D01*
X140827064Y-92865000D02*
X140372936Y-92865000D01*
X140827064Y-94335000D02*
X140372936Y-94335000D01*
X148340000Y-127320000D02*
X148340000Y-128250000D01*
X148340000Y-127320000D02*
X149800000Y-127320000D01*
X148340000Y-130480000D02*
X148340000Y-129550000D01*
X149140000Y-130480000D02*
X148340000Y-130480000D01*
X149140000Y-130480000D02*
X149940000Y-130480000D01*
X150440000Y-130510000D02*
X150680000Y-130840000D01*
X150200000Y-130840000D01*
X150440000Y-130510000D01*
G36*
X150680000Y-130840000D02*
G01*
X150200000Y-130840000D01*
X150440000Y-130510000D01*
X150680000Y-130840000D01*
G37*
X156020000Y-115760000D02*
X156020000Y-114300000D01*
X156020000Y-115760000D02*
X156950000Y-115760000D01*
X159180000Y-114960000D02*
X159180000Y-114160000D01*
X159180000Y-114960000D02*
X159180000Y-115760000D01*
X159180000Y-115760000D02*
X158250000Y-115760000D01*
X159210000Y-113660000D02*
X159540000Y-113420000D01*
X159540000Y-113900000D01*
X159210000Y-113660000D01*
G36*
X159540000Y-113900000D02*
G01*
X159210000Y-113660000D01*
X159540000Y-113420000D01*
X159540000Y-113900000D01*
G37*
X150161252Y-125365000D02*
X149638748Y-125365000D01*
X150161252Y-126835000D02*
X149638748Y-126835000D01*
X143465000Y-119727064D02*
X143465000Y-119272936D01*
X144935000Y-119727064D02*
X144935000Y-119272936D01*
X153827064Y-118465000D02*
X153372936Y-118465000D01*
X153827064Y-119935000D02*
X153372936Y-119935000D01*
X134940000Y-131690000D02*
X134940000Y-141110000D01*
X134940000Y-131690000D02*
X136450000Y-131690000D01*
X134940000Y-137800000D02*
X143560000Y-137800000D01*
X134940000Y-141110000D02*
X143560000Y-141110000D01*
X137200000Y-130400000D02*
X137800000Y-130400000D01*
X137500000Y-131000000D02*
X137200000Y-130400000D01*
X137800000Y-130400000D02*
X137500000Y-131000000D01*
X138550000Y-131690000D02*
X139950000Y-131690000D01*
X143560000Y-131690000D02*
X142050000Y-131690000D01*
X143560000Y-141110000D02*
X143560000Y-131690000D01*
X143990000Y-131850000D02*
X143990000Y-135150000D01*
X143990000Y-131850000D02*
X151000000Y-131850000D01*
X143990000Y-135150000D02*
X151000000Y-135150000D01*
X143527064Y-121565000D02*
X143072936Y-121565000D01*
X143527064Y-123035000D02*
X143072936Y-123035000D01*
X149020000Y-115760000D02*
X149020000Y-114300000D01*
X149020000Y-115760000D02*
X149950000Y-115760000D01*
X152180000Y-114960000D02*
X152180000Y-114160000D01*
X152180000Y-114960000D02*
X152180000Y-115760000D01*
X152180000Y-115760000D02*
X151250000Y-115760000D01*
X152210000Y-113660000D02*
X152540000Y-113420000D01*
X152540000Y-113900000D01*
X152210000Y-113660000D01*
G36*
X152540000Y-113900000D02*
G01*
X152210000Y-113660000D01*
X152540000Y-113420000D01*
X152540000Y-113900000D01*
G37*
X139765000Y-121627064D02*
X139765000Y-121172936D01*
X141235000Y-121627064D02*
X141235000Y-121172936D01*
X153827064Y-120365000D02*
X153372936Y-120365000D01*
X153827064Y-121835000D02*
X153372936Y-121835000D01*
X141550000Y-123290000D02*
X141550000Y-126550000D01*
X143250000Y-123290000D02*
X141550000Y-123290000D01*
X143250000Y-123290000D02*
X143250000Y-126550000D01*
X152090000Y-125311252D02*
X152090000Y-123888748D01*
X153910000Y-125311252D02*
X153910000Y-123888748D01*
X140827064Y-89065000D02*
X140372936Y-89065000D01*
X140827064Y-90535000D02*
X140372936Y-90535000D01*
X137711252Y-126290000D02*
X136288748Y-126290000D01*
X137711252Y-128110000D02*
X136288748Y-128110000D01*
X156627064Y-102965000D02*
X156172936Y-102965000D01*
X156627064Y-104435000D02*
X156172936Y-104435000D01*
X134765000Y-124427064D02*
X134765000Y-123972936D01*
X136235000Y-124427064D02*
X136235000Y-123972936D01*
X146772936Y-115965000D02*
X147227064Y-115965000D01*
X146772936Y-117435000D02*
X147227064Y-117435000D01*
X136461869Y-112497520D02*
X136461869Y-113427520D01*
X136461869Y-112497520D02*
X137921869Y-112497520D01*
X136461869Y-115657520D02*
X136461869Y-114727520D01*
X137261869Y-115657520D02*
X136461869Y-115657520D01*
X137261869Y-115657520D02*
X138061869Y-115657520D01*
X138561869Y-115687520D02*
X138801869Y-116017520D01*
X138321869Y-116017520D01*
X138561869Y-115687520D01*
G36*
X138801869Y-116017520D02*
G01*
X138321869Y-116017520D01*
X138561869Y-115687520D01*
X138801869Y-116017520D01*
G37*
X143527064Y-115965000D02*
X143072936Y-115965000D01*
X143527064Y-117435000D02*
X143072936Y-117435000D01*
X139650000Y-127310000D02*
X139650000Y-124050000D01*
X139650000Y-127310000D02*
X141350000Y-127310000D01*
X141350000Y-127310000D02*
X141350000Y-124050000D01*
X136665000Y-124427064D02*
X136665000Y-123972936D01*
X138135000Y-124427064D02*
X138135000Y-123972936D01*
X140827064Y-90965000D02*
X140372936Y-90965000D01*
X140827064Y-92435000D02*
X140372936Y-92435000D01*
D12*
G36*
X159523463Y-123712494D02*
G01*
X159708353Y-123719975D01*
X159862322Y-123733543D01*
X159965430Y-123751602D01*
X160151556Y-123811988D01*
X160286890Y-123887082D01*
X160379999Y-123982549D01*
X160418901Y-124051388D01*
X160435873Y-124093990D01*
X160449067Y-124143221D01*
X160458958Y-124206849D01*
X160466019Y-124292644D01*
X160470722Y-124408373D01*
X160473543Y-124561804D01*
X160474953Y-124760707D01*
X160475403Y-124978446D01*
X160474813Y-125242030D01*
X160472385Y-125451614D01*
X160467853Y-125613223D01*
X160460949Y-125732882D01*
X160451406Y-125816618D01*
X160438959Y-125870456D01*
X160435499Y-125879624D01*
X160369991Y-125983766D01*
X160271625Y-126082284D01*
X160161162Y-126157025D01*
X160085036Y-126186091D01*
X159989785Y-126207011D01*
X160082805Y-126302984D01*
X160139996Y-126372862D01*
X160172786Y-126433990D01*
X160175826Y-126450069D01*
X160171880Y-126464760D01*
X160155841Y-126476349D01*
X160121413Y-126485200D01*
X160062294Y-126491676D01*
X159972187Y-126496141D01*
X159844793Y-126498958D01*
X159673812Y-126500492D01*
X159452946Y-126501104D01*
X159290129Y-126501181D01*
X159035559Y-126500953D01*
X158834736Y-126500028D01*
X158681363Y-126498041D01*
X158569139Y-126494629D01*
X158491765Y-126489429D01*
X158442944Y-126482078D01*
X158416376Y-126472211D01*
X158405762Y-126459465D01*
X158404431Y-126450069D01*
X158424219Y-126398228D01*
X158473898Y-126328956D01*
X158497452Y-126302984D01*
X158590472Y-126207011D01*
X158496732Y-126186423D01*
X158372621Y-126132147D01*
X158257917Y-126033561D01*
X158169725Y-125905907D01*
X158160629Y-125886938D01*
X158143464Y-125843448D01*
X158130219Y-125792589D01*
X158120392Y-125726369D01*
X158116874Y-125680764D01*
X158434455Y-125680764D01*
X158460240Y-125769744D01*
X158525915Y-125833795D01*
X158613961Y-125865594D01*
X158706861Y-125857816D01*
X158769857Y-125820996D01*
X158815921Y-125744575D01*
X158822202Y-125667865D01*
X159760723Y-125667865D01*
X159778373Y-125761850D01*
X159802233Y-125803957D01*
X159872349Y-125857541D01*
X159963517Y-125868517D01*
X160053964Y-125836371D01*
X160085755Y-125810637D01*
X160131179Y-125739111D01*
X160145802Y-125675531D01*
X160124920Y-125597870D01*
X160085755Y-125540425D01*
X160000988Y-125487396D01*
X159915498Y-125483481D01*
X159839889Y-125518824D01*
X159784763Y-125583571D01*
X159760723Y-125667865D01*
X158822202Y-125667865D01*
X158823599Y-125650808D01*
X158793901Y-125564850D01*
X158758034Y-125527115D01*
X158685546Y-125491239D01*
X158632369Y-125480377D01*
X158556697Y-125505720D01*
X158485795Y-125567528D01*
X158440726Y-125644474D01*
X158434455Y-125680764D01*
X158116874Y-125680764D01*
X158113483Y-125636795D01*
X158108990Y-125515875D01*
X158106412Y-125355615D01*
X158105248Y-125148023D01*
X158105022Y-124999999D01*
X158434455Y-124999999D01*
X158779727Y-124999999D01*
X159124999Y-124999999D01*
X159455259Y-124999999D01*
X159800530Y-124999999D01*
X160145802Y-124999999D01*
X160145802Y-124654727D01*
X160145802Y-124309455D01*
X159800530Y-124309455D01*
X159455259Y-124309455D01*
X159455259Y-124654727D01*
X159455259Y-124999999D01*
X159124999Y-124999999D01*
X159124999Y-124654727D01*
X159124999Y-124309455D01*
X158779727Y-124309455D01*
X158434455Y-124309455D01*
X158434455Y-124654727D01*
X158434455Y-124999999D01*
X158105022Y-124999999D01*
X158106070Y-124780733D01*
X158108074Y-124654727D01*
X158109293Y-124578066D01*
X158114376Y-124401229D01*
X158121001Y-124259451D01*
X158128853Y-124161963D01*
X158134971Y-124124797D01*
X158199557Y-123995704D01*
X158311075Y-123881542D01*
X158456455Y-123794923D01*
X158491314Y-123780952D01*
X158589282Y-123757341D01*
X158734170Y-123738265D01*
X158913007Y-123723984D01*
X159112817Y-123714757D01*
X159320627Y-123710840D01*
X159523463Y-123712494D01*
G37*
G36*
X162165259Y-121701981D02*
G01*
X162233268Y-121723415D01*
X162299017Y-121773233D01*
X162341060Y-121813961D01*
X162410095Y-121889149D01*
X162444779Y-121952616D01*
X162456644Y-122031377D01*
X162457623Y-122087047D01*
X162434403Y-122253888D01*
X162366920Y-122382274D01*
X162258436Y-122468776D01*
X162112213Y-122509964D01*
X162052303Y-122513041D01*
X161959723Y-122501906D01*
X161864875Y-122473573D01*
X161785986Y-122435651D01*
X161741286Y-122395747D01*
X161737055Y-122381469D01*
X161709103Y-122371801D01*
X161633513Y-122364057D01*
X161522689Y-122359163D01*
X161421807Y-122357919D01*
X161106559Y-122357919D01*
X161106559Y-122765608D01*
X161106559Y-123173298D01*
X161252160Y-123343563D01*
X161461771Y-123613437D01*
X161625240Y-123883740D01*
X161753257Y-124174283D01*
X161833435Y-124420888D01*
X161871770Y-124605722D01*
X161895646Y-124828690D01*
X161904879Y-125070321D01*
X161899286Y-125311142D01*
X161878684Y-125531680D01*
X161845489Y-125703019D01*
X161711316Y-126097165D01*
X161531240Y-126452813D01*
X161304915Y-126770582D01*
X161161366Y-126928654D01*
X160891668Y-127168798D01*
X160597982Y-127363917D01*
X160268860Y-127520940D01*
X160055731Y-127597770D01*
X159944756Y-127631537D01*
X159844308Y-127655408D01*
X159738685Y-127671457D01*
X159612183Y-127681758D01*
X159449101Y-127688383D01*
X159350176Y-127690937D01*
X159156545Y-127693870D01*
X159007465Y-127691745D01*
X158887569Y-127683466D01*
X158781491Y-127667937D01*
X158673865Y-127644060D01*
X158666096Y-127642103D01*
X158287662Y-127516453D01*
X157940046Y-127340516D01*
X157626259Y-127117225D01*
X157349316Y-126849514D01*
X157112227Y-126540316D01*
X156918005Y-126192566D01*
X156769662Y-125809198D01*
X156763482Y-125789075D01*
X156729820Y-125670570D01*
X156706876Y-125565295D01*
X156692586Y-125456045D01*
X156684883Y-125325614D01*
X156682398Y-125193769D01*
X157387004Y-125193769D01*
X157400837Y-125391972D01*
X157428613Y-125555408D01*
X157428922Y-125556634D01*
X157532171Y-125847932D01*
X157687033Y-126124964D01*
X157885210Y-126377493D01*
X158118401Y-126595280D01*
X158378309Y-126768086D01*
X158434455Y-126797183D01*
X158577640Y-126860874D01*
X158731635Y-126918336D01*
X158868657Y-126959455D01*
X158899821Y-126966584D01*
X159093178Y-126991957D01*
X159313836Y-126997756D01*
X159537161Y-126984844D01*
X159738520Y-126954079D01*
X159815542Y-126934599D01*
X160110040Y-126817728D01*
X160384576Y-126651058D01*
X160631640Y-126442249D01*
X160843722Y-126198962D01*
X161013312Y-125928859D01*
X161132901Y-125639601D01*
X161152734Y-125570448D01*
X161187656Y-125375522D01*
X161202645Y-125149105D01*
X161197701Y-124916352D01*
X161172823Y-124702413D01*
X161152734Y-124609692D01*
X161052500Y-124334624D01*
X160902390Y-124066349D01*
X160712221Y-123818149D01*
X160491813Y-123603306D01*
X160311017Y-123471073D01*
X160027704Y-123325096D01*
X159721488Y-123226872D01*
X159404794Y-123178725D01*
X159090049Y-123182977D01*
X158914833Y-123210042D01*
X158603355Y-123305123D01*
X158312950Y-123451453D01*
X158050120Y-123642843D01*
X157821371Y-123873107D01*
X157633204Y-124136058D01*
X157492124Y-124425509D01*
X157429114Y-124623505D01*
X157401147Y-124786242D01*
X157387109Y-124984095D01*
X157387004Y-125193769D01*
X156682398Y-125193769D01*
X156681701Y-125156798D01*
X156681362Y-125105082D01*
X156682361Y-124913361D01*
X156688638Y-124764553D01*
X156701820Y-124641639D01*
X156723535Y-124527594D01*
X156744511Y-124444562D01*
X156867773Y-124080075D01*
X157032298Y-123751094D01*
X157245589Y-123443465D01*
X157327609Y-123344622D01*
X157473698Y-123175415D01*
X157473698Y-122809494D01*
X157984100Y-122809494D01*
X158111125Y-122744690D01*
X158208299Y-122700270D01*
X158333128Y-122649988D01*
X158439184Y-122611511D01*
X158744176Y-122529242D01*
X159062104Y-122487908D01*
X159409783Y-122485393D01*
X159433075Y-122486485D01*
X159683762Y-122506567D01*
X159900939Y-122543239D01*
X160110188Y-122602405D01*
X160337088Y-122689972D01*
X160363474Y-122701269D01*
X160596157Y-122801659D01*
X160596157Y-122579789D01*
X160596157Y-122357919D01*
X159290129Y-122357919D01*
X157984100Y-122357919D01*
X157984100Y-122583706D01*
X157984100Y-122809494D01*
X157473698Y-122809494D01*
X157473698Y-122766667D01*
X157473698Y-122583706D01*
X157473698Y-122357919D01*
X156999325Y-122357919D01*
X156791231Y-122355959D01*
X156639639Y-122349918D01*
X156541127Y-122339556D01*
X156492272Y-122324630D01*
X156488923Y-122321890D01*
X156467887Y-122270113D01*
X156456234Y-122180657D01*
X156453964Y-122075153D01*
X156461078Y-121975232D01*
X156477574Y-121902525D01*
X156488923Y-121883545D01*
X156509732Y-121876885D01*
X156559936Y-121871021D01*
X156642412Y-121865914D01*
X156760037Y-121861525D01*
X156915687Y-121857814D01*
X157112240Y-121854743D01*
X157352572Y-121852271D01*
X157639561Y-121850360D01*
X157976084Y-121848971D01*
X158365018Y-121848064D01*
X158809239Y-121847599D01*
X159131003Y-121847517D01*
X159520840Y-121847252D01*
X159893019Y-121846483D01*
X160243225Y-121845250D01*
X160567144Y-121843592D01*
X160860462Y-121841546D01*
X161118864Y-121839153D01*
X161338036Y-121836451D01*
X161513663Y-121833479D01*
X161641431Y-121830277D01*
X161717025Y-121826883D01*
X161737055Y-121823966D01*
X161764212Y-121783307D01*
X161834546Y-121744553D01*
X161931357Y-121714093D01*
X162037943Y-121698316D01*
X162067974Y-121697399D01*
X162165259Y-121701981D01*
G37*
D11*
X145265000Y-99860000D02*
X145265000Y-110140000D01*
X145265000Y-110140000D02*
X151735000Y-110140000D01*
X147500000Y-99860000D02*
X145265000Y-99860000D01*
X151735000Y-99860000D02*
X149500000Y-99860000D01*
X151735000Y-110140000D02*
X151735000Y-99860000D01*
X149500000Y-99860000D02*
G75*
G02*
X147500000Y-99860000I-1000000J0D01*
G01*
X156627064Y-105565000D02*
X156172936Y-105565000D01*
X156627064Y-107035000D02*
X156172936Y-107035000D01*
X154038748Y-84865000D02*
X154561252Y-84865000D01*
X154038748Y-86335000D02*
X154561252Y-86335000D01*
X143565000Y-125727064D02*
X143565000Y-125272936D01*
X145035000Y-125727064D02*
X145035000Y-125272936D01*
X137720260Y-110199601D02*
X136297756Y-110199601D01*
X137720260Y-112019601D02*
X136297756Y-112019601D01*
X153010000Y-137850000D02*
X146000000Y-137850000D01*
X153010000Y-141150000D02*
X146000000Y-141150000D01*
X153010000Y-141150000D02*
X153010000Y-137850000D01*
X134720000Y-118840000D02*
X135650000Y-118840000D01*
X134720000Y-119640000D02*
X134720000Y-118840000D01*
X134720000Y-119640000D02*
X134720000Y-120440000D01*
X137880000Y-118840000D02*
X136950000Y-118840000D01*
X137880000Y-118840000D02*
X137880000Y-120300000D01*
X134690000Y-120940000D02*
X134360000Y-121180000D01*
X134360000Y-120700000D01*
X134690000Y-120940000D01*
G36*
X134690000Y-120940000D02*
G01*
X134360000Y-121180000D01*
X134360000Y-120700000D01*
X134690000Y-120940000D01*
G37*
X152520000Y-115760000D02*
X152520000Y-114300000D01*
X152520000Y-115760000D02*
X153450000Y-115760000D01*
X155680000Y-114960000D02*
X155680000Y-114160000D01*
X155680000Y-114960000D02*
X155680000Y-115760000D01*
X155680000Y-115760000D02*
X154750000Y-115760000D01*
X155710000Y-113660000D02*
X156040000Y-113420000D01*
X156040000Y-113900000D01*
X155710000Y-113660000D01*
G36*
X156040000Y-113900000D02*
G01*
X155710000Y-113660000D01*
X156040000Y-113420000D01*
X156040000Y-113900000D01*
G37*
X139765000Y-117472936D02*
X139765000Y-117927064D01*
X141235000Y-117472936D02*
X141235000Y-117927064D01*
X154038748Y-97865000D02*
X154561252Y-97865000D01*
X154038748Y-99335000D02*
X154561252Y-99335000D01*
X156627064Y-92565000D02*
X156172936Y-92565000D01*
X156627064Y-94035000D02*
X156172936Y-94035000D01*
X158327064Y-84865000D02*
X157872936Y-84865000D01*
X158327064Y-86335000D02*
X157872936Y-86335000D01*
X156627064Y-89965000D02*
X156172936Y-89965000D01*
X156627064Y-91435000D02*
X156172936Y-91435000D01*
M02*
