G04 #@! TF.GenerationSoftware,KiCad,Pcbnew,10.0.3*
G04 #@! TF.CreationDate,2026-06-05T08:26:31+02:00*
G04 #@! TF.ProjectId,sniffer,736e6966-6665-4722-9e6b-696361645f70,0.1.0*
G04 #@! TF.SameCoordinates,Original*
G04 #@! TF.FileFunction,Soldermask,Top*
G04 #@! TF.FilePolarity,Negative*
%FSLAX46Y46*%
G04 Gerber Fmt 4.6, Leading zero omitted, Abs format (unit mm)*
G04 Created by KiCad (PCBNEW 10.0.3) date 2026-06-05 08:26:31*
%MOMM*%
%LPD*%
G01*
G04 APERTURE LIST*
G04 Aperture macros list*
%AMRoundRect*
0 Rectangle with rounded corners*
0 $1 Rounding radius*
0 $2 $3 $4 $5 $6 $7 $8 $9 X,Y pos of 4 corners*
0 Add a 4 corners polygon primitive as box body*
4,1,4,$2,$3,$4,$5,$6,$7,$8,$9,$2,$3,0*
0 Add four circle primitives for the rounded corners*
1,1,$1+$1,$2,$3*
1,1,$1+$1,$4,$5*
1,1,$1+$1,$6,$7*
1,1,$1+$1,$8,$9*
0 Add four rect primitives between the rounded corners*
20,1,$1+$1,$2,$3,$4,$5,0*
20,1,$1+$1,$4,$5,$6,$7,0*
20,1,$1+$1,$6,$7,$8,$9,0*
20,1,$1+$1,$8,$9,$2,$3,0*%
G04 Aperture macros list end*
%ADD10RoundRect,0.249999X-0.750001X-0.640001X0.750001X-0.640001X0.750001X0.640001X-0.750001X0.640001X0*%
%ADD11RoundRect,0.250000X0.350000X0.450000X-0.350000X0.450000X-0.350000X-0.450000X0.350000X-0.450000X0*%
%ADD12RoundRect,0.200000X-0.750000X-0.200000X0.750000X-0.200000X0.750000X0.200000X-0.750000X0.200000X0*%
%ADD13RoundRect,0.250000X0.412500X0.650000X-0.412500X0.650000X-0.412500X-0.650000X0.412500X-0.650000X0*%
%ADD14RoundRect,0.150000X-0.150000X0.825000X-0.150000X-0.825000X0.150000X-0.825000X0.150000X0.825000X0*%
%ADD15RoundRect,0.250000X-0.350000X-0.450000X0.350000X-0.450000X0.350000X0.450000X-0.350000X0.450000X0*%
%ADD16RoundRect,0.250000X-0.650000X-1.550000X0.650000X-1.550000X0.650000X1.550000X-0.650000X1.550000X0*%
%ADD17O,1.800000X3.600000*%
%ADD18RoundRect,0.200000X-0.200000X0.750000X-0.200000X-0.750000X0.200000X-0.750000X0.200000X0.750000X0*%
%ADD19RoundRect,0.250000X0.337500X0.475000X-0.337500X0.475000X-0.337500X-0.475000X0.337500X-0.475000X0*%
%ADD20RoundRect,0.250000X0.450000X-0.350000X0.450000X0.350000X-0.450000X0.350000X-0.450000X-0.350000X0*%
%ADD21RoundRect,0.250000X-1.500000X-0.650000X1.500000X-0.650000X1.500000X0.650000X-1.500000X0.650000X0*%
%ADD22RoundRect,0.250000X-0.250000X0.250000X-0.250000X-0.250000X0.250000X-0.250000X0.250000X0.250000X0*%
%ADD23RoundRect,0.250000X0.650000X-0.412500X0.650000X0.412500X-0.650000X0.412500X-0.650000X-0.412500X0*%
%ADD24RoundRect,0.200000X0.750000X0.200000X-0.750000X0.200000X-0.750000X-0.200000X0.750000X-0.200000X0*%
%ADD25RoundRect,0.250000X0.250000X-0.250000X0.250000X0.250000X-0.250000X0.250000X-0.250000X-0.250000X0*%
%ADD26RoundRect,0.250000X-0.337500X-0.475000X0.337500X-0.475000X0.337500X0.475000X-0.337500X0.475000X0*%
%ADD27RoundRect,0.250000X1.500000X0.650000X-1.500000X0.650000X-1.500000X-0.650000X1.500000X-0.650000X0*%
%ADD28RoundRect,0.200000X0.200000X-0.750000X0.200000X0.750000X-0.200000X0.750000X-0.200000X-0.750000X0*%
%ADD29RoundRect,0.250000X-0.450000X0.350000X-0.450000X-0.350000X0.450000X-0.350000X0.450000X0.350000X0*%
%ADD30C,2.200000*%
%ADD31C,1.850000*%
G04 APERTURE END LIST*
D10*
X143735000Y-88190000D03*
X143735000Y-90730000D03*
X143735000Y-93270000D03*
X143735000Y-95810000D03*
X153265000Y-95810000D03*
X153265000Y-93270000D03*
X153265000Y-90730000D03*
X153265000Y-88190000D03*
D11*
X148000000Y-114800000D03*
X146000000Y-114800000D03*
D12*
X146500000Y-127950000D03*
X146500000Y-129850000D03*
X149500000Y-128900000D03*
D13*
X138562500Y-129500000D03*
X135437500Y-129500000D03*
D14*
X150905000Y-118925000D03*
X149635000Y-118925000D03*
X148365000Y-118925000D03*
X147095000Y-118925000D03*
X147095000Y-123875000D03*
X148365000Y-123875000D03*
X149635000Y-123875000D03*
X150905000Y-123875000D03*
D15*
X147500000Y-136500000D03*
X149500000Y-136500000D03*
D16*
X156100000Y-133000000D03*
D17*
X159600000Y-133000000D03*
D11*
X141600000Y-93600000D03*
X139600000Y-93600000D03*
D18*
X158550000Y-113500000D03*
X156650000Y-113500000D03*
X157600000Y-116500000D03*
D19*
X150937500Y-126100000D03*
X148862500Y-126100000D03*
D20*
X144200000Y-120500000D03*
X144200000Y-118500000D03*
D11*
X154600000Y-119200000D03*
X152600000Y-119200000D03*
D16*
X137500000Y-133000000D03*
D17*
X141000000Y-133000000D03*
D21*
X146000000Y-133500000D03*
X151000000Y-133500000D03*
D11*
X144300000Y-122300000D03*
X142300000Y-122300000D03*
D18*
X151550000Y-113500000D03*
X149650000Y-113500000D03*
X150600000Y-116500000D03*
D20*
X140500000Y-122400000D03*
X140500000Y-120400000D03*
D11*
X154600000Y-121100000D03*
X152600000Y-121100000D03*
D22*
X142400000Y-124050000D03*
X142400000Y-126550000D03*
D23*
X153000000Y-126162500D03*
X153000000Y-123037500D03*
D11*
X141600000Y-89800000D03*
X139600000Y-89800000D03*
D13*
X138562500Y-127200000D03*
X135437500Y-127200000D03*
D11*
X157400000Y-103700000D03*
X155400000Y-103700000D03*
D20*
X135500000Y-125200000D03*
X135500000Y-123200000D03*
D15*
X146000000Y-116700000D03*
X148000000Y-116700000D03*
D24*
X138721869Y-115027520D03*
X138721869Y-113127520D03*
X135721869Y-114077520D03*
D11*
X144300000Y-116700000D03*
X142300000Y-116700000D03*
D25*
X140500000Y-126550000D03*
X140500000Y-124050000D03*
D20*
X137400000Y-125200000D03*
X137400000Y-123200000D03*
D11*
X141600000Y-91700000D03*
X139600000Y-91700000D03*
D10*
X143735000Y-101190000D03*
X143735000Y-103730000D03*
X143735000Y-106270000D03*
X143735000Y-108810000D03*
X153265000Y-108810000D03*
X153265000Y-106270000D03*
X153265000Y-103730000D03*
X153265000Y-101190000D03*
D11*
X157400000Y-106300000D03*
X155400000Y-106300000D03*
D26*
X153262500Y-85600000D03*
X155337500Y-85600000D03*
D20*
X144300000Y-126500000D03*
X144300000Y-124500000D03*
D13*
X138571508Y-111109601D03*
X135446508Y-111109601D03*
D27*
X151000000Y-139500000D03*
X146000000Y-139500000D03*
D28*
X135350000Y-121100000D03*
X137250000Y-121100000D03*
X136300000Y-118100000D03*
D18*
X155050000Y-113500000D03*
X153150000Y-113500000D03*
X154100000Y-116500000D03*
D29*
X140500000Y-116700000D03*
X140500000Y-118700000D03*
D26*
X153262500Y-98600000D03*
X155337500Y-98600000D03*
D11*
X157400000Y-93300000D03*
X155400000Y-93300000D03*
X159100000Y-85600000D03*
X157100000Y-85600000D03*
X157400000Y-90700000D03*
X155400000Y-90700000D03*
D30*
X151225000Y-81500000D03*
D31*
X150925000Y-84530000D03*
X146075000Y-84530000D03*
D30*
X145775000Y-81500000D03*
M02*
