M48
INCH,TZ
T1C0.0118
T2C0.0472
%
G90
G05
T1
X55551Y-51142
X56063Y-46811
X57205Y-38268
X57205Y-39606
X57441Y-48189
X57559Y-46811
X57913Y-47795
X58386Y-48189
X58898Y-47795
X58937Y-36024
X60984Y-37717
X60984Y-42835
X60984Y-46457
X61024Y-45276
X61181Y-34213
X61181Y-36220
X61181Y-37244
X61181Y-39331
X63150Y-33465
X63150Y-35472
X63150Y-36457
T2
X54134Y-52362
X55512Y-52362
X61457Y-52362
X62835Y-52362
M30
